<mxfile host="app.diagrams.net" modified="2022-06-20T13:34:26.332Z" agent="5.0 (Windows)" etag="hDHqELLuz41R7bISIcVB" version="20.0.1" type="github">
  <diagram id="Dj4RFjMXEFlHGXTP8qHr" name="Page-1">
    <mxGraphModel dx="981" dy="519" grid="0" gridSize="10" guides="0" tooltips="1" connect="1" arrows="1" fold="1" page="1" pageScale="1" pageWidth="1654" pageHeight="1169" math="0" shadow="0">
      <root>
        <mxCell id="0" />
        <mxCell id="1" parent="0" />
        <mxCell id="jlwmBe-E_Bq4aMKsU9Mf-1" value="mPE" style="rounded=0;whiteSpace=wrap;html=1;fillColor=#fff2cc;strokeColor=#d6b656;" parent="1" vertex="1">
          <mxGeometry x="227" y="50" width="58" height="1247" as="geometry" />
        </mxCell>
        <mxCell id="jlwmBe-E_Bq4aMKsU9Mf-7" value="" style="endArrow=classic;html=1;rounded=0;fillColor=#f8cecc;strokeColor=#b85450;" parent="1" edge="1">
          <mxGeometry width="50" height="50" relative="1" as="geometry">
            <mxPoint x="17" y="79" as="sourcePoint" />
            <mxPoint x="226" y="79" as="targetPoint" />
          </mxGeometry>
        </mxCell>
        <mxCell id="jlwmBe-E_Bq4aMKsU9Mf-8" value="Carga Sudeste (491)" style="edgeLabel;html=1;align=center;verticalAlign=middle;resizable=0;points=[];" parent="jlwmBe-E_Bq4aMKsU9Mf-7" vertex="1" connectable="0">
          <mxGeometry x="0.0573" relative="1" as="geometry">
            <mxPoint x="-11" y="-10" as="offset" />
          </mxGeometry>
        </mxCell>
        <mxCell id="jlwmBe-E_Bq4aMKsU9Mf-9" value="" style="endArrow=classic;html=1;rounded=0;exitX=1.044;exitY=0.114;exitDx=0;exitDy=0;exitPerimeter=0;" parent="1" edge="1">
          <mxGeometry width="50" height="50" relative="1" as="geometry">
            <mxPoint x="15.999999999999886" y="199.2800000000001" as="sourcePoint" />
            <mxPoint x="225.12" y="198.76" as="targetPoint" />
          </mxGeometry>
        </mxCell>
        <mxCell id="jlwmBe-E_Bq4aMKsU9Mf-10" value="FeriadoSPMunicipal (1118)" style="edgeLabel;html=1;align=center;verticalAlign=middle;resizable=0;points=[];" parent="jlwmBe-E_Bq4aMKsU9Mf-9" vertex="1" connectable="0">
          <mxGeometry x="0.0573" relative="1" as="geometry">
            <mxPoint x="-11" y="-10" as="offset" />
          </mxGeometry>
        </mxCell>
        <mxCell id="jlwmBe-E_Bq4aMKsU9Mf-11" value="" style="endArrow=classic;html=1;rounded=0;exitX=1.044;exitY=0.114;exitDx=0;exitDy=0;exitPerimeter=0;" parent="1" edge="1">
          <mxGeometry width="50" height="50" relative="1" as="geometry">
            <mxPoint x="16" y="239.5200000000001" as="sourcePoint" />
            <mxPoint x="225.12000000000012" y="239" as="targetPoint" />
          </mxGeometry>
        </mxCell>
        <mxCell id="jlwmBe-E_Bq4aMKsU9Mf-12" value="Public HolidaysBrazil.Rio de Janeiro (mpE)" style="edgeLabel;html=1;align=center;verticalAlign=middle;resizable=0;points=[];" parent="jlwmBe-E_Bq4aMKsU9Mf-11" vertex="1" connectable="0">
          <mxGeometry x="0.0573" relative="1" as="geometry">
            <mxPoint x="-11" y="-10" as="offset" />
          </mxGeometry>
        </mxCell>
        <mxCell id="jlwmBe-E_Bq4aMKsU9Mf-15" value="" style="endArrow=classic;html=1;rounded=0;exitX=1.044;exitY=0.114;exitDx=0;exitDy=0;exitPerimeter=0;" parent="1" edge="1">
          <mxGeometry width="50" height="50" relative="1" as="geometry">
            <mxPoint x="16" y="279.5200000000001" as="sourcePoint" />
            <mxPoint x="225.12000000000012" y="279" as="targetPoint" />
          </mxGeometry>
        </mxCell>
        <mxCell id="jlwmBe-E_Bq4aMKsU9Mf-16" value="Public HolidaysBrazil.Sao Paulo (mpE)" style="edgeLabel;html=1;align=center;verticalAlign=middle;resizable=0;points=[];" parent="jlwmBe-E_Bq4aMKsU9Mf-15" vertex="1" connectable="0">
          <mxGeometry x="0.0573" relative="1" as="geometry">
            <mxPoint x="-11" y="-10" as="offset" />
          </mxGeometry>
        </mxCell>
        <mxCell id="jlwmBe-E_Bq4aMKsU9Mf-18" value="" style="endArrow=classic;html=1;rounded=0;exitX=1.044;exitY=0.114;exitDx=0;exitDy=0;exitPerimeter=0;" parent="1" edge="1">
          <mxGeometry width="50" height="50" relative="1" as="geometry">
            <mxPoint x="16" y="319.5200000000001" as="sourcePoint" />
            <mxPoint x="225.12000000000012" y="319" as="targetPoint" />
          </mxGeometry>
        </mxCell>
        <mxCell id="jlwmBe-E_Bq4aMKsU9Mf-19" value="variacao trimestral do PIB (1119)" style="edgeLabel;html=1;align=center;verticalAlign=middle;resizable=0;points=[];" parent="jlwmBe-E_Bq4aMKsU9Mf-18" vertex="1" connectable="0">
          <mxGeometry x="0.0573" relative="1" as="geometry">
            <mxPoint x="-11" y="-10" as="offset" />
          </mxGeometry>
        </mxCell>
        <mxCell id="jlwmBe-E_Bq4aMKsU9Mf-20" value="" style="endArrow=classic;html=1;rounded=0;exitX=1.044;exitY=0.114;exitDx=0;exitDy=0;exitPerimeter=0;" parent="1" edge="1">
          <mxGeometry width="50" height="50" relative="1" as="geometry">
            <mxPoint x="16" y="359.5200000000001" as="sourcePoint" />
            <mxPoint x="225.12000000000012" y="359" as="targetPoint" />
          </mxGeometry>
        </mxCell>
        <mxCell id="jlwmBe-E_Bq4aMKsU9Mf-21" value="Variavel Dummy Pandemia (495)" style="edgeLabel;html=1;align=center;verticalAlign=middle;resizable=0;points=[];" parent="jlwmBe-E_Bq4aMKsU9Mf-20" vertex="1" connectable="0">
          <mxGeometry x="0.0573" relative="1" as="geometry">
            <mxPoint x="-11" y="-10" as="offset" />
          </mxGeometry>
        </mxCell>
        <mxCell id="jlwmBe-E_Bq4aMKsU9Mf-26" value="" style="endArrow=baseDash;html=1;rounded=0;startArrow=none;startFill=0;endFill=0;" parent="1" edge="1">
          <mxGeometry width="50" height="50" relative="1" as="geometry">
            <mxPoint x="286" y="199" as="sourcePoint" />
            <mxPoint x="866" y="199" as="targetPoint" />
          </mxGeometry>
        </mxCell>
        <mxCell id="jlwmBe-E_Bq4aMKsU9Mf-27" value="" style="endArrow=baseDash;html=1;rounded=0;startArrow=none;startFill=0;endFill=0;" parent="1" edge="1">
          <mxGeometry width="50" height="50" relative="1" as="geometry">
            <mxPoint x="286" y="279" as="sourcePoint" />
            <mxPoint x="866" y="279" as="targetPoint" />
          </mxGeometry>
        </mxCell>
        <mxCell id="jlwmBe-E_Bq4aMKsU9Mf-28" value="" style="endArrow=baseDash;html=1;rounded=0;startArrow=none;startFill=0;endFill=0;" parent="1" edge="1">
          <mxGeometry width="50" height="50" relative="1" as="geometry">
            <mxPoint x="286" y="359" as="sourcePoint" />
            <mxPoint x="866" y="359" as="targetPoint" />
          </mxGeometry>
        </mxCell>
        <mxCell id="jlwmBe-E_Bq4aMKsU9Mf-30" value="" style="endArrow=baseDash;html=1;rounded=0;startArrow=none;startFill=0;endFill=0;" parent="1" edge="1">
          <mxGeometry width="50" height="50" relative="1" as="geometry">
            <mxPoint x="286" y="239" as="sourcePoint" />
            <mxPoint x="866" y="239" as="targetPoint" />
          </mxGeometry>
        </mxCell>
        <mxCell id="jlwmBe-E_Bq4aMKsU9Mf-31" value="" style="endArrow=baseDash;html=1;rounded=0;startArrow=none;startFill=0;endFill=0;" parent="1" edge="1">
          <mxGeometry width="50" height="50" relative="1" as="geometry">
            <mxPoint x="286" y="319" as="sourcePoint" />
            <mxPoint x="866" y="319" as="targetPoint" />
          </mxGeometry>
        </mxCell>
        <mxCell id="jlwmBe-E_Bq4aMKsU9Mf-33" value="" style="endArrow=classic;html=1;rounded=0;strokeWidth=1;" parent="1" edge="1">
          <mxGeometry relative="1" as="geometry">
            <mxPoint x="286" y="439" as="sourcePoint" />
            <mxPoint x="866" y="440" as="targetPoint" />
          </mxGeometry>
        </mxCell>
        <mxCell id="jlwmBe-E_Bq4aMKsU9Mf-34" value="Six full months" style="edgeLabel;resizable=0;html=1;align=center;verticalAlign=middle;" parent="jlwmBe-E_Bq4aMKsU9Mf-33" connectable="0" vertex="1">
          <mxGeometry relative="1" as="geometry">
            <mxPoint x="-144" y="-13" as="offset" />
          </mxGeometry>
        </mxCell>
        <mxCell id="jlwmBe-E_Bq4aMKsU9Mf-36" value="&lt;div&gt;everyhing afterwards&lt;/div&gt;" style="edgeLabel;resizable=0;html=1;align=right;verticalAlign=bottom;" parent="jlwmBe-E_Bq4aMKsU9Mf-33" connectable="0" vertex="1">
          <mxGeometry x="1" relative="1" as="geometry">
            <mxPoint x="-90" as="offset" />
          </mxGeometry>
        </mxCell>
        <mxCell id="jlwmBe-E_Bq4aMKsU9Mf-37" value="" style="shape=curlyBracket;whiteSpace=wrap;html=1;rounded=1;rotation=90;" parent="1" vertex="1">
          <mxGeometry x="566" y="129" width="15" height="565" as="geometry" />
        </mxCell>
        <mxCell id="jlwmBe-E_Bq4aMKsU9Mf-38" value="&lt;font style=&quot;font-size: 11px&quot;&gt;Temperature Vitoria - Best Value Forecast &lt;/font&gt;(3279, bestValue)" style="text;html=1;strokeColor=none;fillColor=none;align=center;verticalAlign=middle;whiteSpace=wrap;rounded=0;" parent="1" vertex="1">
          <mxGeometry x="346" y="389" width="440" height="20" as="geometry" />
        </mxCell>
        <mxCell id="jlwmBe-E_Bq4aMKsU9Mf-41" value="" style="endArrow=classic;html=1;rounded=0;fontSize=11;strokeWidth=1;" parent="1" edge="1">
          <mxGeometry width="50" height="50" relative="1" as="geometry">
            <mxPoint x="431" y="758" as="sourcePoint" />
            <mxPoint x="431" y="438" as="targetPoint" />
          </mxGeometry>
        </mxCell>
        <mxCell id="jlwmBe-E_Bq4aMKsU9Mf-42" value="Temperatura Vitoria fonte GRIB_lead (3268, lead[Temperatura Vitoria fonte GRIB], 6)" style="edgeLabel;html=1;align=center;verticalAlign=middle;resizable=0;points=[];fontSize=11;rotation=-90;" parent="jlwmBe-E_Bq4aMKsU9Mf-41" vertex="1" connectable="0">
          <mxGeometry x="-0.1812" y="2" relative="1" as="geometry">
            <mxPoint x="-20" y="26" as="offset" />
          </mxGeometry>
        </mxCell>
        <mxCell id="jlwmBe-E_Bq4aMKsU9Mf-57" value="" style="endArrow=classic;html=1;rounded=0;fontSize=11;strokeWidth=1;" parent="1" edge="1">
          <mxGeometry width="50" height="50" relative="1" as="geometry">
            <mxPoint x="746" y="759" as="sourcePoint" />
            <mxPoint x="746" y="439" as="targetPoint" />
          </mxGeometry>
        </mxCell>
        <mxCell id="jlwmBe-E_Bq4aMKsU9Mf-58" value="&lt;div&gt;Temperatura&amp;nbsp; MLT3 Subsistema SECO (3273, Avg)&lt;/div&gt;" style="edgeLabel;html=1;align=center;verticalAlign=middle;resizable=0;points=[];fontSize=11;rotation=-90;" parent="jlwmBe-E_Bq4aMKsU9Mf-57" vertex="1" connectable="0">
          <mxGeometry x="-0.1812" y="2" relative="1" as="geometry">
            <mxPoint x="-18" as="offset" />
          </mxGeometry>
        </mxCell>
        <mxCell id="jlwmBe-E_Bq4aMKsU9Mf-59" value="" style="endArrow=classic;html=1;rounded=0;fontSize=11;strokeWidth=1;" parent="1" edge="1">
          <mxGeometry width="50" height="50" relative="1" as="geometry">
            <mxPoint x="886" y="520" as="sourcePoint" />
            <mxPoint x="746.0000000000002" y="520" as="targetPoint" />
          </mxGeometry>
        </mxCell>
        <mxCell id="jlwmBe-E_Bq4aMKsU9Mf-60" value="Temperatura Subsistema SECO (Temperature Vitoria, lag(8760))" style="edgeLabel;html=1;align=center;verticalAlign=middle;resizable=0;points=[];fontSize=11;" parent="jlwmBe-E_Bq4aMKsU9Mf-59" vertex="1" connectable="0">
          <mxGeometry x="-0.5233" relative="1" as="geometry">
            <mxPoint x="57" y="-12" as="offset" />
          </mxGeometry>
        </mxCell>
        <mxCell id="jlwmBe-E_Bq4aMKsU9Mf-61" value="" style="endArrow=classic;html=1;rounded=0;fontSize=11;strokeWidth=1;" parent="1" edge="1">
          <mxGeometry width="50" height="50" relative="1" as="geometry">
            <mxPoint x="886" y="560" as="sourcePoint" />
            <mxPoint x="746" y="560" as="targetPoint" />
          </mxGeometry>
        </mxCell>
        <mxCell id="jlwmBe-E_Bq4aMKsU9Mf-62" value="Temperatura Subsistema SECO (Temperature Vitoria, lag(17520))" style="edgeLabel;html=1;align=center;verticalAlign=middle;resizable=0;points=[];fontSize=11;" parent="jlwmBe-E_Bq4aMKsU9Mf-61" vertex="1" connectable="0">
          <mxGeometry x="-0.5233" relative="1" as="geometry">
            <mxPoint x="59" y="-11" as="offset" />
          </mxGeometry>
        </mxCell>
        <mxCell id="jlwmBe-E_Bq4aMKsU9Mf-63" value="" style="endArrow=classic;html=1;rounded=0;fontSize=11;strokeWidth=1;" parent="1" edge="1">
          <mxGeometry width="50" height="50" relative="1" as="geometry">
            <mxPoint x="886" y="600" as="sourcePoint" />
            <mxPoint x="746" y="600" as="targetPoint" />
          </mxGeometry>
        </mxCell>
        <mxCell id="jlwmBe-E_Bq4aMKsU9Mf-64" value="Temperatura Subsistema SECO (Temperature Vitoria, lag(26280))" style="edgeLabel;html=1;align=center;verticalAlign=middle;resizable=0;points=[];fontSize=11;" parent="jlwmBe-E_Bq4aMKsU9Mf-63" vertex="1" connectable="0">
          <mxGeometry x="-0.5233" relative="1" as="geometry">
            <mxPoint x="60" y="-12" as="offset" />
          </mxGeometry>
        </mxCell>
        <mxCell id="jlwmBe-E_Bq4aMKsU9Mf-65" value="" style="endArrow=classic;html=1;rounded=0;fillColor=#f8cecc;strokeColor=#b85450;" parent="1" edge="1">
          <mxGeometry width="50" height="50" relative="1" as="geometry">
            <mxPoint x="286" y="80" as="sourcePoint" />
            <mxPoint x="866" y="80" as="targetPoint" />
          </mxGeometry>
        </mxCell>
        <mxCell id="jlwmBe-E_Bq4aMKsU9Mf-66" value="Carga Sudeste/Centro-Oeste Previsão Huez (487)" style="edgeLabel;html=1;align=center;verticalAlign=middle;resizable=0;points=[];" parent="jlwmBe-E_Bq4aMKsU9Mf-65" vertex="1" connectable="0">
          <mxGeometry x="0.0573" relative="1" as="geometry">
            <mxPoint x="-11" y="-10" as="offset" />
          </mxGeometry>
        </mxCell>
        <mxCell id="jlwmBe-E_Bq4aMKsU9Mf-67" value="" style="endArrow=classic;html=1;rounded=0;fontSize=11;strokeWidth=1;" parent="1" edge="1">
          <mxGeometry width="50" height="50" relative="1" as="geometry">
            <mxPoint x="286" y="120" as="sourcePoint" />
            <mxPoint x="866" y="120" as="targetPoint" />
          </mxGeometry>
        </mxCell>
        <mxCell id="jlwmBe-E_Bq4aMKsU9Mf-68" value="Carga Sudeste/Centro-Oeste (491)" style="edgeLabel;html=1;align=center;verticalAlign=middle;resizable=0;points=[];fontSize=11;" parent="jlwmBe-E_Bq4aMKsU9Mf-67" vertex="1" connectable="0">
          <mxGeometry x="-0.0889" y="1" relative="1" as="geometry">
            <mxPoint y="-9" as="offset" />
          </mxGeometry>
        </mxCell>
        <mxCell id="jlwmBe-E_Bq4aMKsU9Mf-69" value="" style="shape=curlyBracket;whiteSpace=wrap;html=1;rounded=1;flipH=1;fontSize=11;" parent="1" vertex="1">
          <mxGeometry x="876" y="80" width="10" height="40" as="geometry" />
        </mxCell>
        <mxCell id="jlwmBe-E_Bq4aMKsU9Mf-70" value="" style="endArrow=classic;html=1;rounded=0;fontSize=11;strokeWidth=1;" parent="1" edge="1">
          <mxGeometry width="50" height="50" relative="1" as="geometry">
            <mxPoint x="886" y="100" as="sourcePoint" />
            <mxPoint x="1028" y="100" as="targetPoint" />
          </mxGeometry>
        </mxCell>
        <mxCell id="jlwmBe-E_Bq4aMKsU9Mf-71" value="&lt;div&gt;Carga Sudeste/Centro-Oeste&lt;/div&gt;&lt;div&gt;&amp;nbsp;Delta Huez (1567)&lt;/div&gt;" style="edgeLabel;html=1;align=center;verticalAlign=middle;resizable=0;points=[];fontSize=11;" parent="jlwmBe-E_Bq4aMKsU9Mf-70" vertex="1" connectable="0">
          <mxGeometry x="0.3379" relative="1" as="geometry">
            <mxPoint x="-29" y="-21" as="offset" />
          </mxGeometry>
        </mxCell>
        <mxCell id="jlwmBe-E_Bq4aMKsU9Mf-72" value="" style="endArrow=classic;html=1;rounded=0;fontSize=11;strokeWidth=1;" parent="1" edge="1">
          <mxGeometry width="50" height="50" relative="1" as="geometry">
            <mxPoint x="1025" y="100" as="sourcePoint" />
            <mxPoint x="1155" y="100" as="targetPoint" />
          </mxGeometry>
        </mxCell>
        <mxCell id="jlwmBe-E_Bq4aMKsU9Mf-73" value="&lt;div&gt;Carga Sudeste/Centro-Oeste&lt;/div&gt;&lt;div&gt;&amp;nbsp;MAPE Huez (1575)&lt;/div&gt;" style="edgeLabel;html=1;align=center;verticalAlign=middle;resizable=0;points=[];fontSize=11;" parent="jlwmBe-E_Bq4aMKsU9Mf-72" vertex="1" connectable="0">
          <mxGeometry x="0.3379" relative="1" as="geometry">
            <mxPoint x="-18" y="-21" as="offset" />
          </mxGeometry>
        </mxCell>
        <mxCell id="nPsmmynZ7UvR01d1IY3n-3" value="" style="endArrow=classic;html=1;rounded=0;exitX=1.044;exitY=0.114;exitDx=0;exitDy=0;exitPerimeter=0;" edge="1" parent="1">
          <mxGeometry width="50" height="50" relative="1" as="geometry">
            <mxPoint x="17" y="439.5200000000002" as="sourcePoint" />
            <mxPoint x="226.1199999999999" y="439" as="targetPoint" />
          </mxGeometry>
        </mxCell>
        <mxCell id="nPsmmynZ7UvR01d1IY3n-4" value="Temperature Vitoria (3257)" style="edgeLabel;html=1;align=center;verticalAlign=middle;resizable=0;points=[];" vertex="1" connectable="0" parent="nPsmmynZ7UvR01d1IY3n-3">
          <mxGeometry x="0.0573" relative="1" as="geometry">
            <mxPoint x="-11" y="-10" as="offset" />
          </mxGeometry>
        </mxCell>
        <mxCell id="nPsmmynZ7UvR01d1IY3n-5" value="" style="endArrow=classic;html=1;rounded=0;exitX=1.044;exitY=0.114;exitDx=0;exitDy=0;exitPerimeter=0;" edge="1" parent="1">
          <mxGeometry width="50" height="50" relative="1" as="geometry">
            <mxPoint x="14" y="920.5200000000002" as="sourcePoint" />
            <mxPoint x="223.12000000000012" y="920" as="targetPoint" />
          </mxGeometry>
        </mxCell>
        <mxCell id="nPsmmynZ7UvR01d1IY3n-6" value="Temperature Ribeirao Preto (3260)" style="edgeLabel;html=1;align=center;verticalAlign=middle;resizable=0;points=[];" vertex="1" connectable="0" parent="nPsmmynZ7UvR01d1IY3n-5">
          <mxGeometry x="0.0573" relative="1" as="geometry">
            <mxPoint x="-11" y="-10" as="offset" />
          </mxGeometry>
        </mxCell>
        <mxCell id="nPsmmynZ7UvR01d1IY3n-8" value="" style="endArrow=classic;html=1;rounded=0;strokeWidth=1;dashed=1;" edge="1" parent="1">
          <mxGeometry relative="1" as="geometry">
            <mxPoint x="286" y="920" as="sourcePoint" />
            <mxPoint x="866" y="921" as="targetPoint" />
          </mxGeometry>
        </mxCell>
        <mxCell id="nPsmmynZ7UvR01d1IY3n-10" value="as above" style="edgeLabel;resizable=0;html=1;align=right;verticalAlign=bottom;" connectable="0" vertex="1" parent="nPsmmynZ7UvR01d1IY3n-8">
          <mxGeometry x="1" relative="1" as="geometry">
            <mxPoint x="-231" y="-3" as="offset" />
          </mxGeometry>
        </mxCell>
        <mxCell id="nPsmmynZ7UvR01d1IY3n-11" value="" style="endArrow=classic;html=1;rounded=0;exitX=1.044;exitY=0.114;exitDx=0;exitDy=0;exitPerimeter=0;" edge="1" parent="1">
          <mxGeometry width="50" height="50" relative="1" as="geometry">
            <mxPoint x="17" y="967.5200000000004" as="sourcePoint" />
            <mxPoint x="226.12000000000012" y="967.0000000000002" as="targetPoint" />
          </mxGeometry>
        </mxCell>
        <mxCell id="nPsmmynZ7UvR01d1IY3n-12" value="Temperature Presidente Prudente (3262)" style="edgeLabel;html=1;align=center;verticalAlign=middle;resizable=0;points=[];" vertex="1" connectable="0" parent="nPsmmynZ7UvR01d1IY3n-11">
          <mxGeometry x="0.0573" relative="1" as="geometry">
            <mxPoint x="-11" y="-10" as="offset" />
          </mxGeometry>
        </mxCell>
        <mxCell id="nPsmmynZ7UvR01d1IY3n-13" value="" style="endArrow=classic;html=1;rounded=0;strokeWidth=1;dashed=1;" edge="1" parent="1">
          <mxGeometry relative="1" as="geometry">
            <mxPoint x="286" y="966.0000000000002" as="sourcePoint" />
            <mxPoint x="866" y="967" as="targetPoint" />
          </mxGeometry>
        </mxCell>
        <mxCell id="nPsmmynZ7UvR01d1IY3n-14" value="as above" style="edgeLabel;resizable=0;html=1;align=right;verticalAlign=bottom;" connectable="0" vertex="1" parent="nPsmmynZ7UvR01d1IY3n-13">
          <mxGeometry x="1" relative="1" as="geometry">
            <mxPoint x="-231" y="-3" as="offset" />
          </mxGeometry>
        </mxCell>
        <mxCell id="nPsmmynZ7UvR01d1IY3n-16" value="" style="endArrow=classic;html=1;rounded=0;exitX=1.044;exitY=0.114;exitDx=0;exitDy=0;exitPerimeter=0;" edge="1" parent="1">
          <mxGeometry width="50" height="50" relative="1" as="geometry">
            <mxPoint x="16.999999999999773" y="1019.5200000000004" as="sourcePoint" />
            <mxPoint x="226.1199999999999" y="1019.0000000000002" as="targetPoint" />
          </mxGeometry>
        </mxCell>
        <mxCell id="nPsmmynZ7UvR01d1IY3n-17" value="Temperature Goiania (3258)" style="edgeLabel;html=1;align=center;verticalAlign=middle;resizable=0;points=[];" vertex="1" connectable="0" parent="nPsmmynZ7UvR01d1IY3n-16">
          <mxGeometry x="0.0573" relative="1" as="geometry">
            <mxPoint x="-11" y="-10" as="offset" />
          </mxGeometry>
        </mxCell>
        <mxCell id="nPsmmynZ7UvR01d1IY3n-18" value="" style="endArrow=classic;html=1;rounded=0;exitX=1.044;exitY=0.114;exitDx=0;exitDy=0;exitPerimeter=0;" edge="1" parent="1">
          <mxGeometry width="50" height="50" relative="1" as="geometry">
            <mxPoint x="16.999999999999773" y="1069.5200000000004" as="sourcePoint" />
            <mxPoint x="226.1199999999999" y="1069.0000000000002" as="targetPoint" />
          </mxGeometry>
        </mxCell>
        <mxCell id="nPsmmynZ7UvR01d1IY3n-19" value="Temperature Galeao (3261)" style="edgeLabel;html=1;align=center;verticalAlign=middle;resizable=0;points=[];" vertex="1" connectable="0" parent="nPsmmynZ7UvR01d1IY3n-18">
          <mxGeometry x="0.0573" relative="1" as="geometry">
            <mxPoint x="-11" y="-10" as="offset" />
          </mxGeometry>
        </mxCell>
        <mxCell id="nPsmmynZ7UvR01d1IY3n-20" value="" style="endArrow=classic;html=1;rounded=0;exitX=1.044;exitY=0.114;exitDx=0;exitDy=0;exitPerimeter=0;" edge="1" parent="1">
          <mxGeometry width="50" height="50" relative="1" as="geometry">
            <mxPoint x="15.999999999999773" y="1119.5200000000004" as="sourcePoint" />
            <mxPoint x="225.1199999999999" y="1119.0000000000002" as="targetPoint" />
          </mxGeometry>
        </mxCell>
        <mxCell id="nPsmmynZ7UvR01d1IY3n-21" value="Temperature Belo Horizonte (3259)" style="edgeLabel;html=1;align=center;verticalAlign=middle;resizable=0;points=[];" vertex="1" connectable="0" parent="nPsmmynZ7UvR01d1IY3n-20">
          <mxGeometry x="0.0573" relative="1" as="geometry">
            <mxPoint x="-11" y="-10" as="offset" />
          </mxGeometry>
        </mxCell>
        <mxCell id="nPsmmynZ7UvR01d1IY3n-22" value="" style="endArrow=classic;html=1;rounded=0;strokeWidth=1;dashed=1;" edge="1" parent="1">
          <mxGeometry relative="1" as="geometry">
            <mxPoint x="286" y="1019.0000000000002" as="sourcePoint" />
            <mxPoint x="866" y="1019.9999999999998" as="targetPoint" />
          </mxGeometry>
        </mxCell>
        <mxCell id="nPsmmynZ7UvR01d1IY3n-23" value="as above" style="edgeLabel;resizable=0;html=1;align=right;verticalAlign=bottom;" connectable="0" vertex="1" parent="nPsmmynZ7UvR01d1IY3n-22">
          <mxGeometry x="1" relative="1" as="geometry">
            <mxPoint x="-231" y="-3" as="offset" />
          </mxGeometry>
        </mxCell>
        <mxCell id="nPsmmynZ7UvR01d1IY3n-24" value="" style="endArrow=classic;html=1;rounded=0;strokeWidth=1;dashed=1;" edge="1" parent="1">
          <mxGeometry relative="1" as="geometry">
            <mxPoint x="287" y="1068.0000000000002" as="sourcePoint" />
            <mxPoint x="867" y="1068.9999999999998" as="targetPoint" />
          </mxGeometry>
        </mxCell>
        <mxCell id="nPsmmynZ7UvR01d1IY3n-25" value="as above" style="edgeLabel;resizable=0;html=1;align=right;verticalAlign=bottom;" connectable="0" vertex="1" parent="nPsmmynZ7UvR01d1IY3n-24">
          <mxGeometry x="1" relative="1" as="geometry">
            <mxPoint x="-231" y="-3" as="offset" />
          </mxGeometry>
        </mxCell>
        <mxCell id="nPsmmynZ7UvR01d1IY3n-26" value="" style="endArrow=classic;html=1;rounded=0;strokeWidth=1;dashed=1;" edge="1" parent="1">
          <mxGeometry relative="1" as="geometry">
            <mxPoint x="287" y="1119.0000000000002" as="sourcePoint" />
            <mxPoint x="867" y="1119.9999999999998" as="targetPoint" />
          </mxGeometry>
        </mxCell>
        <mxCell id="nPsmmynZ7UvR01d1IY3n-27" value="as above" style="edgeLabel;resizable=0;html=1;align=right;verticalAlign=bottom;" connectable="0" vertex="1" parent="nPsmmynZ7UvR01d1IY3n-26">
          <mxGeometry x="1" relative="1" as="geometry">
            <mxPoint x="-231" y="-3" as="offset" />
          </mxGeometry>
        </mxCell>
      </root>
    </mxGraphModel>
  </diagram>
</mxfile>
